<svg width="45" height="45" viewBox="0 0 45 45" fill="none" xmlns="http://www.w3.org/2000/svg">
<path d="M19.885 29.9445L27.345 30.0639L28.7894 25.9602L29.2881 23.9264L29.19 13.7245L28.2731 12.9583H27.5462L26.7387 11.1177H25.0369L23.4012 10.0039L21.84 11.3958L20.0012 11.432L19.885 12.9583V18.0027L17.5 22.9252V24.8802L19.0437 29.9445H19.885Z" fill="black"/>
<path d="M20.5293 23.5894C21.0581 24.4131 21.7314 25.1345 22.5168 25.7187C22.5168 25.7187 21.5118 23.6044 21.7193 22.3275C21.9268 21.0506 21.0737 18.2188 20.8018 18.2188C20.5299 18.2188 20.5293 23.5894 20.5293 23.5894Z" fill="black"/>
<path d="M22.2307 16.422L22.23 12.3476M19.7119 15.1733V12.1283C19.7119 10.7364 22.2307 10.6326 22.2307 12.347V11.2376C22.2307 9.73888 24.6682 9.21638 24.6682 11.9001" stroke="black" stroke-width="1.25" stroke-linecap="round" stroke-linejoin="round"/>
<path d="M24.7355 18.701L24.6686 11.6085V11.8997C24.6686 10.5622 27.1368 10.2016 27.1374 12.2154L27.1599 14.6591L27.2037 19.3085L27.1537 13.9629C27.1537 12.7572 29.3005 12.7166 29.3011 14.271L29.3024 23.5316C29.3034 24.2629 29.1722 24.9883 28.9149 25.6729L28.6805 26.2091C28.6805 26.2091 27.1043 32.2435 26.6524 34.3154H19.893C19.4687 32.4672 17.8655 26.2091 17.8655 26.2091L17.6636 25.3635C17.3799 24.1671 17.4666 22.9126 17.9124 21.7666C18.2999 20.7691 18.7824 19.5229 19.398 18.0679C20.0293 17.8116 20.5568 18.2354 20.8855 18.8654C21.0588 19.2206 21.1516 19.6096 21.1574 20.0048C21.1631 20.4 21.0816 20.7915 20.9186 21.1516L20.8374 21.3435C20.6345 21.8219 20.5299 22.3363 20.5299 22.856V23.5885" stroke="black" stroke-width="1.25" stroke-linecap="round" stroke-linejoin="round"/>
<path d="M27.5455 29.9453H19.043" stroke="black" stroke-width="1.25" stroke-linecap="round" stroke-linejoin="round"/>
</svg>
