<?xml version="1.0" encoding="UTF-8" standalone="no"?>
<svg
   width="45"
   height="45"
   viewBox="0 0 45 45"
   fill="none"
   version="1.1"
   id="svg5"
   sodipodi:docname="Right.svg"
   inkscape:version="1.4 (86a8ad7, 2024-10-11)"
   xmlns:inkscape="http://www.inkscape.org/namespaces/inkscape"
   xmlns:sodipodi="http://sodipodi.sourceforge.net/DTD/sodipodi-0.dtd"
   xmlns="http://www.w3.org/2000/svg"
   xmlns:svg="http://www.w3.org/2000/svg">
  <defs
     id="defs5" />
  <sodipodi:namedview
     id="namedview5"
     pagecolor="#ffffff"
     bordercolor="#000000"
     borderopacity="0.25"
     inkscape:showpageshadow="2"
     inkscape:pageopacity="0.0"
     inkscape:pagecheckerboard="0"
     inkscape:deskcolor="#d1d1d1"
     inkscape:zoom="12.146523"
     inkscape:cx="18.153343"
     inkscape:cy="19.882233"
     inkscape:window-width="1920"
     inkscape:window-height="991"
     inkscape:window-x="-9"
     inkscape:window-y="-9"
     inkscape:window-maximized="1"
     inkscape:current-layer="svg5" />
  <path
     d="m 29.799665,36.349904 -13.24165,0.211938 -2.563838,-7.284149 -0.885203,-3.610037 0.17413,-18.1085757 1.627515,-1.3600202 h 1.290262 L 17.63421,2.9319583 h 3.020729 l 2.903401,-1.97701732 2.771161,2.47065032 3.263907,0.064255 0.206257,2.7092131 v 8.9539114 l 4.233423,8.737536 v 3.470164 l -2.740099,8.989233 z"
     fill="#000000"
     id="path1"
     style="stroke-width:1.77502" />
  <path
     d="m 28.65602,25.069475 c -0.938631,1.462084 -2.133752,2.742583 -3.527852,3.77955 0,0 1.783894,-3.752924 1.415577,-6.019447 -0.368317,-2.266523 1.145953,-7.293026 1.62858,-7.293026 0.482629,0 0.483695,9.532923 0.483695,9.532923 z"
     fill="#000000"
     id="path2"
     style="stroke-width:1.77502" />
  <path
     d="m 25.636,12.347196 0.0012,-7.2321407 m 4.469685,5.0156737 V 4.7257934 c 0,-2.4706502 -4.470921,-2.6548974 -4.470921,0.3881969 V 3.1447832 c 0,-2.66025799 -4.326611,-3.58770594 -4.326611,1.1759508"
     stroke="#000000"
     stroke-width="1.63064"
     stroke-linecap="round"
     stroke-linejoin="round"
     id="path3" />
  <path
     d="M 21.189931,16.392468 21.30868,3.8031381 v 0.5168858 c 0,-2.3740892 -4.381105,-3.0141615 -4.382169,0.5603738 l -0.03994,4.3376163 -0.07775,8.252779 0.08875,-9.4885479 c 0,-2.1401416 -3.810613,-2.2122073 -3.811678,0.5468837 l -0.0023,16.4377502 c -0.0018,1.298072 0.231106,2.585672 0.687819,3.80085 l 0.416065,0.951766 c 0,0 2.797786,10.711181 3.599917,14.388845 h 11.998071 c 0.753141,-3.280592 3.598853,-14.388845 3.598853,-14.388845 l 0.358376,-1.500958 c 0.503573,-2.123634 0.349679,-4.350396 -0.441625,-6.384569 -0.687821,-1.770582 -1.544267,-3.982612 -2.636969,-6.565266 -1.12057,-0.454937 -2.056894,0.297316 -2.640343,1.415578 -0.307611,0.630487 -0.472332,1.32097 -0.482628,2.022458 -0.01018,0.701488 0.134547,1.396408 0.423875,2.035593 l 0.144131,0.340627 c 0.360152,0.849168 0.545819,1.76224 0.545819,2.684717 v 1.300202"
     stroke="#000000"
     stroke-width="1.63064"
     stroke-linecap="round"
     stroke-linejoin="round"
     id="path4" />
  <path
     d="M 16.202124,36.351325 H 31.294232"
     stroke="#000000"
     stroke-width="1.63064"
     stroke-linecap="round"
     stroke-linejoin="round"
     id="path5" />
</svg>
