<svg width="45" height="45" viewBox="0 0 45 45" fill="none" xmlns="http://www.w3.org/2000/svg">
<path d="M5.21441 28.0869C6.57691 27.2356 9.81816 24.0956 10.3732 22.4644C10.9282 20.8331 11.8232 17.5456 13.8107 15.7056L21.1794 8.87939C21.1794 8.87939 22.2557 7.33439 23.5282 8.64439C25.2857 10.4544 23.8344 11.7981 23.8344 11.7981L21.0894 14.6619L18.3007 16.5219C18.3007 16.5219 18.9219 17.1919 21.6769 14.6406L30.9819 6.02189C30.9819 6.02189 32.0057 4.46689 33.3007 5.75439C34.9919 7.43439 33.5919 8.98439 33.5919 8.98439L24.9682 16.9731C25.3682 17.2831 25.3282 17.4831 25.3407 17.4719L34.7544 8.75189C34.7544 8.75189 35.6032 7.13189 36.9632 8.35064C38.7844 9.98314 37.4544 11.6681 37.4544 11.6681L28.0007 20.3731C27.9894 20.3831 28.4157 20.8469 28.3969 20.8644L36.5169 13.3419C36.5169 13.3419 37.4419 11.6431 38.7257 12.9419C40.5582 14.7956 39.1382 16.3031 39.1382 16.3031L30.4782 24.3144C30.3994 24.3869 30.8169 24.8444 30.7182 24.9369L36.9394 19.1731C36.9394 19.1731 37.7882 17.5531 39.1482 18.7731C40.8894 20.3381 39.4219 21.8531 39.4219 21.8531C39.4219 21.8531 29.5894 30.9456 29.3732 31.1619C29.1569 31.3769 28.7032 31.7819 28.7032 31.7819C27.0544 33.1719 25.7019 33.7019 23.9557 34.3206C23.7607 34.3906 23.6344 34.4281 23.4857 34.4706C21.7819 34.9644 17.1107 36.8844 13.9894 39.8594C12.0369 41.7194 8.8769 38.1469 8.23565 37.2444C7.3819 36.0431 11.2319 33.7756 11.7994 33.0944C12.3669 32.4131 12.0832 31.1081 10.9482 31.8456C9.81315 32.5831 7.6819 35.7581 6.7169 34.9056C5.7519 34.0531 4.36191 31.8031 4.07941 30.6394C3.89441 29.8744 3.85316 28.9381 5.21441 28.0869Z" fill="#66757F"/>
<path d="M4.8411 27.5873C6.2036 26.736 9.4436 23.596 9.99985 21.9648C10.5561 20.3335 11.4499 17.046 13.4374 15.206L20.8061 8.37978C20.8061 8.37978 22.1461 7.13853 23.3874 8.47853C24.6286 9.81853 23.2874 11.0585 23.2874 11.0585L20.4161 13.7185L17.9274 16.0235C17.9274 16.0235 18.5486 16.6935 21.3036 14.1423L30.6086 5.52353C30.6086 5.52353 31.9486 4.28228 33.1899 5.62228C34.4311 6.96228 33.0911 8.20353 33.0911 8.20353L24.2924 16.3535C24.3111 16.336 24.9549 16.9835 24.9674 16.9723L34.3811 8.25228C34.3811 8.25228 35.7211 7.01103 36.9624 8.35103C38.2036 9.69103 36.8636 10.931 36.8636 10.931L27.4486 19.6523C27.4374 19.6623 28.0424 20.3473 28.0236 20.3648L36.1436 12.8435C36.1436 12.8435 37.4836 11.6023 38.7249 12.9423C39.9661 14.2823 38.6261 15.5235 38.6261 15.5235L29.9924 23.521C29.9136 23.5948 30.4449 24.3473 30.3461 24.4385L36.5674 18.676C36.5674 18.676 37.9074 17.4348 39.1486 18.776C40.3899 20.1173 39.0499 21.3573 39.0499 21.3573L29.0011 30.666C29.0011 30.666 28.5861 31.0923 28.3311 31.286C26.7311 32.501 25.2761 33.2898 23.6549 33.7985C23.4961 33.851 23.2624 33.9323 23.1136 33.9748C21.4099 34.4685 16.7386 36.3885 13.6174 39.3635C11.6649 41.2248 8.50485 37.651 7.8636 36.7485C7.00985 35.5473 10.8599 33.2798 11.4274 32.5985C11.9949 31.9173 11.7111 30.6123 10.5761 31.3498C9.4411 32.0873 7.30985 35.2623 6.34485 34.4098C5.37985 33.5573 3.98985 31.3073 3.70735 30.1435C3.5211 29.376 3.47985 28.4385 4.8411 27.5873Z" fill="black"/>
<path d="M18.5229 30.0853C18.6099 30.0852 18.6959 30.0669 18.7754 30.0316L26.9366 26.4278C27.0136 26.3959 27.0835 26.3489 27.142 26.2896C27.2006 26.2303 27.2467 26.1599 27.2776 26.0825C27.3085 26.0051 27.3237 25.9223 27.3222 25.839C27.3206 25.7557 27.3024 25.6735 27.2687 25.5973C27.2349 25.5211 27.1863 25.4524 27.1256 25.3953C27.0649 25.3382 26.9934 25.2938 26.9152 25.2647C26.8371 25.2357 26.754 25.2225 26.6707 25.226C26.5875 25.2296 26.5058 25.2497 26.4304 25.2853L18.2691 28.8891C18.1382 28.9472 18.0312 29.0485 17.9661 29.1761C17.9009 29.3037 17.8816 29.4499 17.9113 29.59C17.941 29.7302 18.018 29.8558 18.1294 29.946C18.2407 30.0362 18.3796 30.0854 18.5229 30.0853ZM15.4016 26.3391C15.5659 26.339 15.7235 26.2744 15.8404 26.1591L22.4066 19.7003C22.4666 19.6431 22.5146 19.5746 22.5478 19.4986C22.5811 19.4227 22.5989 19.341 22.6002 19.2581C22.6015 19.1752 22.5864 19.0929 22.5556 19.016C22.5248 18.939 22.4791 18.869 22.421 18.8099C22.3628 18.7508 22.2936 18.7038 22.2172 18.6718C22.1407 18.6397 22.0587 18.6231 21.9758 18.623C21.893 18.623 21.8109 18.6394 21.7344 18.6713C21.658 18.7033 21.5886 18.7501 21.5304 18.8091L14.9654 25.2678C14.8768 25.3547 14.8161 25.4659 14.791 25.5873C14.7658 25.7088 14.7774 25.8349 14.8241 25.9498C14.8709 26.0647 14.9508 26.163 15.0536 26.2323C15.1565 26.3016 15.2776 26.3388 15.4016 26.3391ZM16.9341 28.1553C17.0595 28.1551 17.1819 28.1172 17.2854 28.0466L25.0791 22.7453C25.2038 22.6472 25.2865 22.5054 25.3106 22.3486C25.3347 22.1918 25.2985 22.0317 25.2091 21.9006C25.1198 21.7696 24.984 21.6773 24.8293 21.6424C24.6745 21.6075 24.5123 21.6327 24.3754 21.7128L16.5816 27.0141C16.4713 27.0894 16.388 27.198 16.3439 27.3241C16.2999 27.4502 16.2973 27.5871 16.3368 27.7148C16.3762 27.8424 16.4555 27.954 16.563 28.0333C16.6705 28.1126 16.8006 28.1554 16.9341 28.1553Z" fill="#66757F"/>
</svg>
