<?xml version="1.0" encoding="UTF-8" standalone="no"?>
<svg
   width="45"
   height="45"
   viewBox="0 0 45 45"
   fill="none"
   version="1.1"
   id="svg2"
   sodipodi:docname="Left.svg"
   inkscape:version="1.4 (86a8ad7, 2024-10-11)"
   xmlns:inkscape="http://www.inkscape.org/namespaces/inkscape"
   xmlns:sodipodi="http://sodipodi.sourceforge.net/DTD/sodipodi-0.dtd"
   xmlns="http://www.w3.org/2000/svg"
   xmlns:svg="http://www.w3.org/2000/svg">
  <defs
     id="defs2" />
  <sodipodi:namedview
     id="namedview2"
     pagecolor="#ffffff"
     bordercolor="#000000"
     borderopacity="0.25"
     inkscape:showpageshadow="2"
     inkscape:pageopacity="0.0"
     inkscape:pagecheckerboard="0"
     inkscape:deskcolor="#d1d1d1"
     showguides="true"
     inkscape:zoom="12.146523"
     inkscape:cx="18.72964"
     inkscape:cy="23.916309"
     inkscape:window-width="1920"
     inkscape:window-height="991"
     inkscape:window-x="-9"
     inkscape:window-y="-9"
     inkscape:window-maximized="1"
     inkscape:current-layer="svg2" />
  <path
     d="m 36.384903,18.499417 c -1.763136,-1.764382 -4.583046,0.651969 -5.556006,2.955796 l 0.0011,-11.6325507 C 30.844947,8.6125246 30.589223,7.4141567 30.0817,6.3154743 29.574178,5.2166137 28.827694,4.2452579 27.896461,3.4718469 20.521505,-2.4675287 10.659935,3.9289031 10.362305,11.292803 c -0.260716,6.453175 -0.0021,12.916516 -0.0021,19.374151 0,3.414993 1.669513,11.745254 1.669513,11.745254 0,0 7.085351,1.314103 10.607339,1.47121 3.767192,0.167095 7.486412,-0.01783 9.949486,-2.44417 2.380687,-2.34395 3.569959,-6.86351 3.57103,-10.469136 -0.03781,-2.490893 0.2263,-6.725127 0.22737,-12.470695 z"
     fill="#000000"
     id="path1"
     style="stroke-width:1.78863;stroke-dasharray:none"
     sodipodi:nodetypes="ccccccsccccc" />
  <path
     d="m 31.050916,21.556504 c 0.623972,-1.50652 1.79452,-2.721651 3.276787,-3.401618 0.264818,-0.0856 0.545508,-0.11021 0.821204,-0.07186 0.275696,0.03835 0.539266,0.138739 0.770558,0.29335 0.231291,0.154789 0.424599,0.360045 0.565301,0.600253 0.140701,0.240209 0.225228,0.509129 0.246984,0.786609 1.364215,12.641354 -1.013084,19.823538 -6.192458,24.054383 H 13.226975 C 7.817913,37.796707 9.652557,22.973147 10.584324,11.395163 11.169421,4.1104415 20.577323,-2.2580996 27.931236,3.4261948 c 0.980629,0.7739461 1.771516,1.7615297 2.312386,2.8876746 0.540871,1.1261449 0.81728,2.3608918 0.808364,3.6100835 z m 0,0 -0.511624,7.473216"
     stroke="#000000"
     stroke-width="1.25"
     stroke-linecap="round"
     stroke-linejoin="round"
     id="path2"
     style="stroke-width:2.2358;stroke-dasharray:none"
     sodipodi:nodetypes="ccscscccccscccc" />
</svg>
