<svg width="45" height="45" viewBox="0 0 45 45" fill="none" xmlns="http://www.w3.org/2000/svg">
<path fill-rule="evenodd" clip-rule="evenodd" d="M32.8062 8.0699C32.8031 6.87589 32.534 5.69756 32.0185 4.6206C31.5029 3.54363 30.7538 2.5951 29.8257 1.84396C28.8975 1.09282 27.8136 0.557961 26.6528 0.278266C25.492 -0.00142939 24.2835 -0.0189276 23.1151 0.227043L23.0733 0.236686L8.42583 3.74026C6.62712 4.12506 5.01487 5.11531 3.85832 6.54564C2.70178 7.97596 2.07095 9.75978 2.07118 11.5992V21.2935C2.07054 26.5331 3.28987 31.701 5.63261 36.3878L6.89261 38.9045V43.3467C6.89261 43.7729 7.06193 44.1817 7.36333 44.4831C7.66473 44.7845 8.07351 44.9538 8.49975 44.9538H30.9998C31.426 44.9538 31.8348 44.7845 32.1362 44.4831C32.4376 44.1817 32.6069 43.7729 32.6069 43.3467V39.2967L38.2094 34.8128C39.6855 33.6325 40.6985 31.9697 41.0701 30.1167L42.7737 21.5828C43.1417 19.7425 42.8539 17.8314 41.9604 16.181C41.0668 14.5307 39.6237 13.2451 37.8815 12.5474L37.8076 12.5153L37.7337 12.496L36.824 12.2292V19.5449C36.824 20.0777 36.6124 20.5887 36.2356 20.9654C35.8589 21.3422 35.3479 21.5538 34.8151 21.5538C34.2823 21.5538 33.7713 21.3422 33.3946 20.9654C33.0178 20.5887 32.8062 20.0777 32.8062 19.5449V8.0699Z" fill="black"/>
</svg>
