<svg width="45" height="45" viewBox="0 0 45 45" fill="none" xmlns="http://www.w3.org/2000/svg">
<path fill-rule="evenodd" clip-rule="evenodd" d="M12.1938 8.0699C12.1969 6.87589 12.466 5.69756 12.9815 4.6206C13.4971 3.54363 14.2462 2.5951 15.1743 1.84396C16.1025 1.09282 17.1864 0.557961 18.3472 0.278266C19.508 -0.00142939 20.7165 -0.0189276 21.8849 0.227043L21.9267 0.236686L36.5742 3.74026C38.3729 4.12506 39.9851 5.11531 41.1417 6.54564C42.2982 7.97596 42.9291 9.75978 42.9288 11.5992V21.2935C42.9295 26.5331 41.7101 31.701 39.3674 36.3878L38.1074 38.9045V43.3467C38.1074 43.7729 37.9381 44.1817 37.6367 44.4831C37.3353 44.7845 36.9265 44.9538 36.5002 44.9538H14.0002C13.574 44.9538 13.1652 44.7845 12.8638 44.4831C12.5624 44.1817 12.3931 43.7729 12.3931 43.3467V39.2967L6.7906 34.8128C5.31446 33.6325 4.30154 31.9697 3.92989 30.1167L2.22632 21.5828C1.85833 19.7425 2.14607 17.8314 3.03964 16.181C3.93322 14.5307 5.37625 13.2451 7.11846 12.5474L7.19239 12.5153L7.26632 12.496L8.17596 12.2292V19.5449C8.17596 20.0777 8.38762 20.5887 8.76436 20.9654C9.14111 21.3422 9.65209 21.5538 10.1849 21.5538C10.7177 21.5538 11.2287 21.3422 11.6054 20.9654C11.9822 20.5887 12.1938 20.0777 12.1938 19.5449V8.0699Z" fill="black"/>
</svg>
