<svg width="45" height="45" viewBox="0 0 45 45" fill="none" xmlns="http://www.w3.org/2000/svg">
<g clip-path="url(#clip0_38_3386)">
<mask id="mask0_38_3386" style="mask-type:luminance" maskUnits="userSpaceOnUse" x="0" y="0" width="45" height="45">
<path d="M45 0H0V45H45V0Z" fill="white"/>
</mask>
<g mask="url(#mask0_38_3386)">
<path fill-rule="evenodd" clip-rule="evenodd" d="M26.7186 9.35302V26.1465L30.9374 25.0918L32.428 24.7205L34.318 24.248L34.8946 24.1046C35.1929 24.0317 35.5071 24.0632 35.785 24.1937C36.063 24.3242 36.2878 24.546 36.4222 24.822C36.5567 25.0981 36.5925 25.4119 36.5239 25.7112C36.4552 26.0104 36.2862 26.2772 36.0449 26.4671L35.5752 26.8327L34.0368 28.028L32.8274 28.9674L26.803 33.653L19.1305 33.144L9.84363 32.3452L7.96769 22.3411L7.66394 20.7127L6.38425 13.8896L5.968 11.6761L5.94269 11.544C5.85542 11.1736 5.91884 10.7838 6.119 10.4602C6.31917 10.1366 6.63968 9.90576 7.01003 9.81849C7.38038 9.73122 7.77023 9.79464 8.09382 9.99481C8.41741 10.195 8.64823 10.5155 8.7355 10.8858L8.77207 11.0152L9.39081 13.1808L9.84363 14.7671L11.2499 19.689H14.0624V5.69115C14.0677 5.31639 14.2159 4.95781 14.4767 4.68862C14.7374 4.41942 15.0911 4.25993 15.4655 4.2427C15.8399 4.22547 16.2068 4.3518 16.4912 4.59591C16.7756 4.84001 16.9561 5.18347 16.9958 5.55615L17.0099 5.69115L17.2068 7.87084L17.8142 14.5674L18.2277 19.1152L18.2811 19.689H21.0936L21.1471 19.4274L22.0724 14.7952L22.4999 12.6577L23.2311 9.00709L23.5968 7.17334L23.6586 6.86959C23.7376 6.49703 23.9513 6.16671 24.2587 5.9419C24.5661 5.71708 24.9457 5.61357 25.3246 5.65119C25.7036 5.68881 26.0554 5.86491 26.3126 6.14578C26.5698 6.42664 26.7144 6.79252 26.7186 7.17334V9.35302ZM33.8708 20.0124L30.9374 20.7408V7.17334C30.9369 5.99156 30.5734 4.83846 29.8959 3.87015C29.2184 2.90185 28.2597 2.16511 27.1497 1.75969C26.0396 1.35428 24.8318 1.29977 23.6897 1.60354C22.5477 1.9073 21.5265 2.55468 20.7646 3.45802C20.2493 2.25325 19.3339 1.26326 18.1731 0.65531C17.0123 0.0473573 15.6773 -0.141298 14.3935 0.121213C13.1097 0.383724 11.9558 1.08131 11.1269 2.09613C10.2979 3.11095 9.84464 4.38079 9.84363 5.69115V6.20302C8.90172 5.74069 7.84973 5.54963 6.8054 5.65122C5.76107 5.7528 4.76562 6.14303 3.93047 6.77822C3.09532 7.41341 2.45344 8.2685 2.07665 9.24777C1.69987 10.227 1.60306 11.2919 1.79706 12.323L5.698 33.1215C5.86741 34.0282 6.32934 34.8544 7.01306 35.4736C7.69677 36.0928 8.56459 36.4709 9.48363 36.5499L18.7705 37.3458L18.8493 37.3515L26.5218 37.8633C27.5536 37.9314 28.5745 37.6181 29.3905 36.983L38.6352 29.7971C39.6418 29.0136 40.3485 27.908 40.637 26.6655C40.9256 25.423 40.7784 24.1191 40.2201 22.9722C39.6618 21.8253 38.7264 20.9051 37.5705 20.3658C36.4145 19.8264 35.1084 19.7035 33.8708 20.0124ZM7.58519 43.5868C7.03459 43.5377 6.52528 43.2744 6.16684 42.8536C5.80839 42.4328 5.62945 41.8881 5.66852 41.3367C5.70759 40.7853 5.96154 40.2712 6.37575 39.9052C6.78995 39.5391 7.3313 39.3503 7.88332 39.3793L27.5708 40.7855C27.8507 40.8002 28.1248 40.8706 28.3772 40.9924C28.6295 41.1142 28.8551 41.2851 29.0407 41.4951C29.2263 41.7051 29.3682 41.95 29.458 42.2154C29.5479 42.4808 29.584 42.7615 29.5642 43.0411C29.5444 43.3206 29.4691 43.5934 29.3427 43.8435C29.2163 44.0936 29.0413 44.316 28.8279 44.4978C28.6146 44.6795 28.3672 44.8169 28.1002 44.9019C27.8331 44.987 27.5518 45.0179 27.2727 44.993L7.58519 43.5868Z" fill="black"/>
</g>
</g>
<defs>
<clipPath id="clip0_38_3386">
<rect width="45" height="45" fill="white" transform="matrix(-1 0 0 1 45 0)"/>
</clipPath>
</defs>
</svg>
