<svg width="45" height="45" viewBox="0 0 45 45" fill="none" xmlns="http://www.w3.org/2000/svg">
<g clip-path="url(#clip0_38_3315)">
<mask id="mask0_38_3315" style="mask-type:luminance" maskUnits="userSpaceOnUse" x="0" y="0" width="45" height="45">
<path d="M0 0H45V45H0V0Z" fill="white"/>
</mask>
<g mask="url(#mask0_38_3315)">
<path fill-rule="evenodd" clip-rule="evenodd" d="M18.2814 9.35302V26.1465L14.0626 25.0918L12.572 24.7205L10.682 24.248L10.1054 24.1046C9.80715 24.0317 9.49291 24.0632 9.21498 24.1937C8.93705 24.3242 8.71217 24.546 8.57775 24.822C8.44333 25.0981 8.40747 25.4119 8.47612 25.7112C8.54478 26.0104 8.71382 26.2772 8.95512 26.4671L9.42481 26.8327L10.9632 28.028L12.1726 28.9674L18.197 33.653L25.8695 33.144L35.1564 32.3452L37.0323 22.3411L37.3361 20.7127L38.6157 13.8896L39.032 11.6761L39.0573 11.544C39.1446 11.1736 39.0812 10.7838 38.881 10.4602C38.6808 10.1366 38.3603 9.90576 37.99 9.81849C37.6196 9.73122 37.2298 9.79464 36.9062 9.99481C36.5826 10.195 36.3518 10.5155 36.2645 10.8858L36.2279 11.0152L35.6092 13.1808L35.1564 14.7671L33.7501 19.689H30.9376V5.69115C30.9323 5.31639 30.7841 4.95781 30.5233 4.68862C30.2626 4.41942 29.9089 4.25993 29.5345 4.2427C29.1601 4.22547 28.7932 4.3518 28.5088 4.59591C28.2244 4.84001 28.0439 5.18347 28.0042 5.55615L27.9901 5.69115L27.7932 7.87084L27.1858 14.5674L26.7723 19.1152L26.7189 19.689H23.9064L23.8529 19.4274L22.9276 14.7952L22.5001 12.6577L21.7689 9.00709L21.4032 7.17334L21.3414 6.86959C21.2624 6.49703 21.0487 6.16671 20.7413 5.9419C20.4339 5.71708 20.0543 5.61357 19.6754 5.65119C19.2964 5.68881 18.9446 5.86491 18.6874 6.14578C18.4302 6.42664 18.2856 6.79252 18.2814 7.17334V9.35302ZM11.1292 20.0124L14.0626 20.7408V7.17334C14.0631 5.99156 14.4266 4.83846 15.1041 3.87015C15.7816 2.90185 16.7403 2.16511 17.8503 1.75969C18.9604 1.35428 20.1682 1.29977 21.3103 1.60354C22.4523 1.9073 23.4735 2.55468 24.2354 3.45802C24.7507 2.25325 25.6661 1.26326 26.8269 0.65531C27.9877 0.0473573 29.3227 -0.141298 30.6065 0.121213C31.8903 0.383724 33.0442 1.08131 33.8731 2.09613C34.7021 3.11095 35.1554 4.38079 35.1564 5.69115V6.20302C36.0983 5.74069 37.1503 5.54963 38.1946 5.65122C39.2389 5.7528 40.2344 6.14303 41.0695 6.77822C41.9047 7.41341 42.5466 8.2685 42.9233 9.24777C43.3001 10.227 43.3969 11.2919 43.2029 12.323L39.302 33.1215C39.1326 34.0282 38.6707 34.8544 37.9869 35.4736C37.3032 36.0928 36.4354 36.4709 35.5164 36.5499L26.2295 37.3458L26.1507 37.3515L18.4782 37.8633C17.4464 37.9314 16.4255 37.6181 15.6095 36.983L6.36481 29.7971C5.35824 29.0136 4.65149 27.908 4.36296 26.6655C4.07442 25.423 4.22162 24.1191 4.7799 22.9722C5.33819 21.8253 6.27364 20.9051 7.42955 20.3658C8.58546 19.8264 9.89161 19.7035 11.1292 20.0124ZM37.4148 43.5868C37.9654 43.5377 38.4747 43.2744 38.8332 42.8536C39.1916 42.4328 39.3706 41.8881 39.3315 41.3367C39.2924 40.7853 39.0385 40.2712 38.6243 39.9052C38.2101 39.5391 37.6687 39.3503 37.1167 39.3793L17.4292 40.7855C17.1493 40.8002 16.8752 40.8706 16.6228 40.9924C16.3705 41.1142 16.1449 41.2851 15.9593 41.4951C15.7737 41.7051 15.6318 41.95 15.542 42.2154C15.4521 42.4808 15.416 42.7615 15.4358 43.0411C15.4556 43.3206 15.5309 43.5934 15.6573 43.8435C15.7837 44.0936 15.9587 44.316 16.1721 44.4978C16.3854 44.6795 16.6328 44.8169 16.8998 44.9019C17.1669 44.987 17.4482 45.0179 17.7273 44.993L37.4148 43.5868Z" fill="black"/>
</g>
</g>
<defs>
<clipPath id="clip0_38_3315">
<rect width="45" height="45" fill="white"/>
</clipPath>
</defs>
</svg>
