<svg width="45" height="45" viewBox="0 0 45 45" fill="none" xmlns="http://www.w3.org/2000/svg">
<path d="M32.5387 23.7828C32.4016 24.4226 32.0817 26.1945 32.0113 26.8379C31.9199 27.6535 31.934 28.7504 32.0254 29.6328C32.0957 30.3219 32.5598 33.2855 32.7567 34.5336C32.8094 34.8676 32.6266 35.191 32.3137 35.314C31.3047 35.7219 28.907 36.6008 25.5883 37.2371C22.5613 37.8172 20.6488 38.0527 19.7348 38.1441C19.3692 38.1793 19.0352 37.9402 18.9578 37.5781C18.5219 35.5707 17.0629 29.0879 15.3332 24.3348C15.1117 23.7265 12.6719 16.4703 12.6719 16.4703C12.2781 15.3875 12.5524 14.3363 13.5824 13.9144C14.6406 13.4785 15.4211 13.9742 15.8184 14.9129L17.4391 19.2687C17.5164 19.4515 17.6852 19.7785 17.875 19.7258C18.0789 19.666 18.1317 19.4867 18.0789 19.2863C17.7309 17.9187 16.3035 13.4258 16.1348 12.5644C15.9028 11.3726 16.2613 10.3707 17.3547 10.0859C18.4481 9.80116 19.3938 10.5816 19.6363 11.4711C19.8789 12.3605 21.6121 18.3863 21.6121 18.3863C21.7598 18.7941 22.1641 18.5094 22.1254 18.2949L20.6559 10.2512C20.3676 8.56717 21.2535 7.54764 22.3645 7.50194C23.2574 7.46678 24.2278 7.90272 24.516 9.36522L25.9293 17.764C26.0278 18.1332 26.3617 18.1051 26.3301 17.6691L25.852 10.4199C25.7535 8.70428 26.4707 8.15936 27.3742 8.10311C28.7278 8.01874 29.2832 8.80272 29.3992 10.3109C29.459 11.0949 30.0426 17.0398 30.0426 17.0398C30.0496 17.1348 30.0602 17.293 30.0602 17.293C30.4504 16.8183 30.9602 16.3402 31.7688 16.3297C32.5035 16.3191 33.0977 16.4808 33.4528 17.8449C33.7586 19.0367 32.9008 22.1023 32.5387 23.7828Z" fill="black"/>
<path d="M27.8885 23.7109C27.7408 21.5207 27.9694 17.4637 29.9838 16.5039L30.0541 17.2879C28.8272 18.9789 28.4686 23.9359 28.444 24.6215C28.4194 25.3105 27.9764 25.0082 27.8885 23.7109ZM21.2369 37.9527C21.2369 37.9527 20.692 37.8859 20.4108 37.1301C20.1295 36.3742 19.4475 32.9465 19.4194 32.6547C19.3596 32.043 19.5178 32.0395 19.6197 32.043C19.7533 32.05 19.9115 32.2539 20.0697 32.9043C20.351 34.0574 21.2369 37.9527 21.2369 37.9527ZM23.9651 37.5238C23.9651 37.5238 23.4201 37.457 23.1389 36.7012C22.8576 35.9453 22.1932 32.5984 22.1615 32.3102C22.0947 31.6844 22.2108 31.6563 22.2846 31.6246C22.4252 31.5648 22.6151 31.7195 22.7979 32.4754C23.0756 33.6285 23.9651 37.5238 23.9651 37.5238ZM26.4365 37.0281C26.4365 37.0281 25.8916 36.9613 25.6104 36.2055C25.3924 35.6219 24.8264 33.2031 24.6365 32.0078C24.5627 31.5402 24.626 31.1711 24.8299 31.1676C24.9213 31.1641 25.0655 31.0621 25.2729 31.9797C25.5295 33.1363 26.4365 37.0281 26.4365 37.0281ZM30.919 35.8293C30.919 35.8293 31.3795 35.534 31.3092 34.7324C31.253 34.1137 30.7362 31.6773 30.4022 30.5137C30.3459 30.3203 30.1701 29.8914 29.9381 29.9512C29.7061 30.0109 29.7166 30.257 29.8256 30.7668C30.0682 31.9234 30.919 35.8293 30.919 35.8293ZM28.342 36.5605C28.342 36.5605 28.8026 36.2652 28.7322 35.4637C28.6795 34.866 28.1979 32.5914 27.8639 31.3855C27.7479 30.9672 27.6846 30.6051 27.3893 30.6016C27.1362 30.598 27.1397 31.0023 27.2487 31.498C27.3506 31.9938 28.342 36.5605 28.342 36.5605Z" fill="#2F7889"/>
</svg>
