<svg width="45" height="45" viewBox="0 0 45 45" fill="none" xmlns="http://www.w3.org/2000/svg">
<path d="M13.1846 23.7401C13.3182 24.38 13.6206 26.1553 13.6909 26.7987C13.7752 27.6143 13.7506 28.7112 13.6522 29.5936C13.5784 30.2405 13.146 32.8913 12.9245 34.2413C12.8847 34.4739 12.9262 34.7131 13.0421 34.9186C13.158 35.1241 13.3412 35.2835 13.5608 35.3698C14.6788 35.8163 16.9569 36.6354 20.0331 37.2471C22.9405 37.8272 24.9795 37.9186 26.0448 37.9116C26.2846 37.91 26.5165 37.8254 26.7011 37.6723C26.8856 37.5191 27.0115 37.3068 27.0573 37.0714C27.4651 34.9409 28.685 29.003 30.3936 24.4292C30.6186 23.8245 33.1182 16.5858 33.1182 16.5858C33.519 15.5065 33.2553 14.4518 32.2288 14.0229C31.1741 13.58 30.3901 14.0686 29.9823 15.0038L28.112 19.56C28.0346 19.7428 27.894 19.7991 27.792 19.7604C27.6901 19.7217 27.6831 19.6163 27.7393 19.4124C28.0979 18.0483 29.5006 13.2319 29.6764 12.3741C29.8838 11.3651 29.5077 10.4264 28.4178 10.1311C27.328 9.83933 26.421 10.4475 26.1713 11.337C25.9217 12.2264 24.1569 18.6776 24.1569 18.6776C24.1006 18.8956 23.6788 18.8253 23.7667 18.4561L25.4963 10.2436C25.76 8.61589 25.1237 7.76511 23.9776 7.54714C22.835 7.32917 21.8999 7.84948 21.6151 9.47722C21.6151 9.47722 20.128 17.753 20.0752 17.978C20.0085 18.2487 19.5971 18.21 19.6639 17.862L20.3178 10.1909C20.3495 8.62995 19.5268 8.09206 18.5178 8.078C17.1081 8.06042 16.5456 9.06589 16.426 10.444C16.3592 11.228 15.7299 17.2678 15.7299 17.2678C15.7299 17.2678 15.0303 16.3678 14.1022 16.3925C13.6592 16.403 12.5799 16.628 12.5061 18.0975C12.4463 19.1382 12.8366 22.0596 13.1846 23.7401Z" fill="black"/>
<path d="M14.6538 23.5684C14.3409 21.357 14.7417 16.5195 14.7417 16.5195C15.2374 16.618 15.7226 17.2684 15.7226 17.2684L15.2198 24.5176C15.2198 24.5176 14.8577 25.0098 14.6538 23.5684ZM14.9562 35.866C14.9562 35.866 14.4851 35.5883 14.5237 34.7832C14.5554 34.1363 15.0476 31.5102 15.3218 30.3957C15.48 29.7488 15.6733 29.7734 15.7577 29.784C15.9054 29.798 16.0073 30.023 15.8808 30.7648C15.6804 31.9391 14.9562 35.866 14.9562 35.866ZM17.6597 36.7133C17.6597 36.7133 17.1886 36.4355 17.2273 35.6305C17.2589 34.9836 17.7405 32.3645 18.0253 31.25C18.1905 30.6066 18.3839 30.6207 18.4683 30.6312C18.6124 30.6523 18.7038 30.8141 18.5843 31.6121C18.4015 32.7863 17.6597 36.7133 17.6597 36.7133ZM20.089 37.2582C20.089 37.2582 19.6179 36.9805 19.6566 36.1754C19.6882 35.5285 20.3386 32.3047 20.4546 31.7914C20.5706 31.2781 20.6831 31.0848 20.8659 31.1129C21.0487 31.141 21.1612 31.2852 21.0136 32.157C20.8132 33.3312 20.089 37.2582 20.089 37.2582ZM24.6733 37.8453C24.6733 37.8453 25.2148 37.7539 25.4644 36.991C25.6683 36.3687 26.1921 33.7145 26.3151 32.5895C26.3433 32.3258 26.3222 31.8582 26.1534 31.816C26.0128 31.7809 25.8405 31.8266 25.6612 32.7582C25.4433 33.9254 24.6733 37.8453 24.6733 37.8453ZM22.0683 37.5816C22.0683 37.5816 22.6097 37.4902 22.8593 36.7273C23.1089 35.9645 23.6749 32.3609 23.696 32.0691C23.7241 31.6402 23.5976 31.5242 23.4359 31.5629C23.2706 31.598 23.1546 32.0199 23.0597 32.498C22.7267 34.1921 22.3962 35.8866 22.0683 37.5816Z" fill="#2F7889"/>
</svg>
