<svg width="45" height="45" viewBox="0 0 45 45" fill="none" xmlns="http://www.w3.org/2000/svg">
<path d="M39.7856 28.0869C38.4231 27.2356 35.1818 24.0956 34.6268 22.4644C34.0718 20.8331 33.1768 17.5456 31.1893 15.7056L23.8206 8.87939C23.8206 8.87939 22.7443 7.33439 21.4718 8.64439C19.7143 10.4544 21.1656 11.7981 21.1656 11.7981L23.9106 14.6619L26.6993 16.5219C26.6993 16.5219 26.0781 17.1919 23.3231 14.6406L14.0181 6.02189C14.0181 6.02189 12.9943 4.46689 11.6993 5.75439C10.0081 7.43439 11.4081 8.98439 11.4081 8.98439L20.0318 16.9731C19.6318 17.2831 19.6718 17.4831 19.6593 17.4719L10.2456 8.75189C10.2456 8.75189 9.39684 7.13189 8.03684 8.35064C6.21559 9.98314 7.54559 11.6681 7.54559 11.6681L16.9993 20.3731C17.0106 20.3831 16.5843 20.8469 16.6031 20.8644L8.48309 13.3419C8.48309 13.3419 7.55809 11.6431 6.27434 12.9419C4.44184 14.7956 5.86184 16.3031 5.86184 16.3031L14.5218 24.3144C14.6006 24.3869 14.1831 24.8444 14.2818 24.9369L8.06059 19.1731C8.06059 19.1731 7.21184 17.5531 5.85184 18.7731C4.11059 20.3381 5.57809 21.8531 5.57809 21.8531C5.57809 21.8531 15.4106 30.9456 15.6268 31.1619C15.8431 31.3769 16.2968 31.7819 16.2968 31.7819C17.9456 33.1719 19.2981 33.7019 21.0443 34.3206C21.2393 34.3906 21.3656 34.4281 21.5143 34.4706C23.2181 34.9644 27.8893 36.8844 31.0106 39.8594C32.9631 41.7194 36.1231 38.1469 36.7643 37.2444C37.6181 36.0431 33.7681 33.7756 33.2006 33.0944C32.6331 32.4131 32.9168 31.1081 34.0518 31.8456C35.1868 32.5831 37.3181 35.7581 38.2831 34.9056C39.2481 34.0531 40.6381 31.8031 40.9206 30.6394C41.1056 29.8744 41.1468 28.9381 39.7856 28.0869Z" fill="#66757F"/>
<path d="M40.1589 27.5873C38.7964 26.736 35.5564 23.596 35.0001 21.9648C34.4439 20.3335 33.5501 17.046 31.5626 15.206L24.1939 8.37978C24.1939 8.37978 22.8539 7.13853 21.6126 8.47853C20.3714 9.81853 21.7126 11.0585 21.7126 11.0585L24.5839 13.7185L27.0726 16.0235C27.0726 16.0235 26.4514 16.6935 23.6964 14.1423L14.3914 5.52353C14.3914 5.52353 13.0514 4.28228 11.8101 5.62228C10.5689 6.96228 11.9089 8.20353 11.9089 8.20353L20.7076 16.3535C20.6889 16.336 20.0451 16.9835 20.0326 16.9723L10.6189 8.25228C10.6189 8.25228 9.2789 7.01103 8.03765 8.35103C6.7964 9.69103 8.1364 10.931 8.1364 10.931L17.5514 19.6523C17.5626 19.6623 16.9576 20.3473 16.9764 20.3648L8.8564 12.8435C8.8564 12.8435 7.5164 11.6023 6.27515 12.9423C5.0339 14.2823 6.3739 15.5235 6.3739 15.5235L15.0076 23.521C15.0864 23.5948 14.5551 24.3473 14.6539 24.4385L8.43265 18.676C8.43265 18.676 7.09265 17.4348 5.8514 18.776C4.61015 20.1173 5.95015 21.3573 5.95015 21.3573L15.9989 30.666C15.9989 30.666 16.4139 31.0923 16.6689 31.286C18.2689 32.501 19.7239 33.2898 21.3451 33.7985C21.5039 33.851 21.7376 33.9323 21.8864 33.9748C23.5901 34.4685 28.2614 36.3885 31.3826 39.3635C33.3351 41.2248 36.4951 37.651 37.1364 36.7485C37.9901 35.5473 34.1401 33.2798 33.5726 32.5985C33.0051 31.9173 33.2889 30.6123 34.4239 31.3498C35.5589 32.0873 37.6901 35.2623 38.6551 34.4098C39.6201 33.5573 41.0101 31.3073 41.2926 30.1435C41.4789 29.376 41.5201 28.4385 40.1589 27.5873Z" fill="black"/>
<path d="M26.4771 30.0853C26.3901 30.0852 26.3041 30.0669 26.2246 30.0316L18.0634 26.4278C17.9864 26.3959 17.9165 26.3489 17.858 26.2896C17.7994 26.2303 17.7533 26.1599 17.7224 26.0825C17.6915 26.0051 17.6763 25.9223 17.6778 25.839C17.6794 25.7557 17.6976 25.6735 17.7313 25.5973C17.7651 25.5211 17.8137 25.4524 17.8744 25.3953C17.9351 25.3382 18.0066 25.2938 18.0848 25.2647C18.1629 25.2357 18.246 25.2225 18.3293 25.226C18.4125 25.2296 18.4942 25.2497 18.5696 25.2853L26.7309 28.8891C26.8618 28.9472 26.9688 29.0485 27.0339 29.1761C27.0991 29.3037 27.1184 29.4499 27.0887 29.59C27.059 29.7302 26.982 29.8558 26.8706 29.946C26.7593 30.0362 26.6204 30.0854 26.4771 30.0853ZM29.5984 26.3391C29.4341 26.339 29.2765 26.2744 29.1596 26.1591L22.5934 19.7003C22.5334 19.6431 22.4854 19.5746 22.4522 19.4986C22.4189 19.4227 22.4011 19.341 22.3998 19.2581C22.3985 19.1752 22.4136 19.0929 22.4444 19.016C22.4752 18.939 22.5209 18.869 22.579 18.8099C22.6372 18.7508 22.7064 18.7038 22.7828 18.6718C22.8593 18.6397 22.9413 18.6231 23.0242 18.623C23.107 18.623 23.1891 18.6394 23.2656 18.6713C23.342 18.7033 23.4114 18.7501 23.4696 18.8091L30.0346 25.2678C30.1232 25.3547 30.1839 25.4659 30.209 25.5873C30.2342 25.7088 30.2226 25.8349 30.1759 25.9498C30.1291 26.0647 30.0492 26.163 29.9464 26.2323C29.8435 26.3016 29.7224 26.3388 29.5984 26.3391ZM28.0659 28.1553C27.9405 28.1551 27.8181 28.1172 27.7146 28.0466L19.9209 22.7453C19.7962 22.6472 19.7135 22.5054 19.6894 22.3486C19.6653 22.1918 19.7015 22.0317 19.7909 21.9006C19.8802 21.7696 20.016 21.6773 20.1707 21.6424C20.3255 21.6075 20.4877 21.6327 20.6246 21.7128L28.4184 27.0141C28.5287 27.0894 28.612 27.198 28.6561 27.3241C28.7001 27.4502 28.7027 27.5871 28.6632 27.7148C28.6238 27.8424 28.5445 27.954 28.437 28.0333C28.3295 28.1126 28.1994 28.1554 28.0659 28.1553Z" fill="#66757F"/>
</svg>
