<svg width="45" height="45" viewBox="0 0 45 45" fill="none" xmlns="http://www.w3.org/2000/svg">
<path d="M27.615 29.9445L20.155 30.0639L18.7106 25.9602L18.2119 23.9264L18.31 13.7245L19.2269 12.9583H19.9538L20.7613 11.1177H22.4631L24.0988 10.0039L25.66 11.3958L27.4988 11.432L27.615 12.9583V18.0027L30 22.9252V24.8802L28.4563 29.9445H27.615Z" fill="black"/>
<path d="M26.9707 23.5894C26.4419 24.4131 25.7686 25.1345 24.9832 25.7187C24.9832 25.7187 25.9882 23.6044 25.7807 22.3275C25.5732 21.0506 26.4263 18.2188 26.6982 18.2188C26.9701 18.2188 26.9707 23.5894 26.9707 23.5894Z" fill="black"/>
<path d="M25.2693 16.422L25.27 12.3476M27.7881 15.1733V12.1283C27.7881 10.7364 25.2693 10.6326 25.2693 12.347V11.2376C25.2693 9.73888 22.8318 9.21638 22.8318 11.9001" stroke="black" stroke-width="1.25" stroke-linecap="round" stroke-linejoin="round"/>
<path d="M22.7645 18.701L22.8314 11.6085V11.8997C22.8314 10.5622 20.3632 10.2016 20.3626 12.2154L20.3401 14.6591L20.2963 19.3085L20.3463 13.9629C20.3463 12.7572 18.1995 12.7166 18.1989 14.271L18.1976 23.5316C18.1966 24.2629 18.3278 24.9883 18.5851 25.6729L18.8195 26.2091C18.8195 26.2091 20.3957 32.2435 20.8476 34.3154H27.607C28.0313 32.4672 29.6345 26.2091 29.6345 26.2091L29.8364 25.3635C30.1201 24.1671 30.0334 22.9126 29.5876 21.7666C29.2001 20.7691 28.7176 19.5229 28.102 18.0679C27.4707 17.8116 26.9432 18.2354 26.6145 18.8654C26.4412 19.2206 26.3484 19.6096 26.3426 20.0048C26.3369 20.4 26.4184 20.7915 26.5814 21.1516L26.6626 21.3435C26.8655 21.8219 26.9701 22.3363 26.9701 22.856V23.5885" stroke="black" stroke-width="1.25" stroke-linecap="round" stroke-linejoin="round"/>
<path d="M19.9545 29.9453H28.457" stroke="black" stroke-width="1.25" stroke-linecap="round" stroke-linejoin="round"/>
</svg>
