<svg width="24" height="24" viewBox="0 0 24 24" fill="none" xmlns="http://www.w3.org/2000/svg">
<path fill-rule="evenodd" clip-rule="evenodd" d="M4.82868 4.81891C8.62402 1.02893 14.7937 1.06923 18.6122 4.88778C22.4324 8.70797 22.4711 14.8813 18.6762 18.6762C14.8812 22.4711 8.70793 22.4324 4.88774 18.6122C2.62389 16.3484 1.68904 13.2599 2.09047 10.3312C2.14672 9.9208 2.525 9.63377 2.93537 9.69002C3.34575 9.74627 3.63282 10.1245 3.57658 10.5349C3.2366 13.0152 4.02782 15.631 5.9484 17.5516C9.19288 20.7961 14.4164 20.8146 17.6155 17.6155C20.8146 14.4164 20.796 9.19292 17.5515 5.94844C14.3087 2.70561 9.08889 2.68539 5.88935 5.87957L6.63705 5.88333C7.05126 5.88541 7.38535 6.22288 7.38327 6.63709C7.38119 7.0513 7.04372 7.38539 6.62951 7.38331L4.08396 7.37052C3.67269 7.36845 3.33981 7.03556 3.33774 6.6243L3.32495 4.07874C3.32286 3.66454 3.65696 3.32707 4.07117 3.32498C4.48538 3.3229 4.82285 3.657 4.82493 4.07121L4.82868 4.81891Z" fill="#1C274C"/>
</svg>
