<?xml version="1.0" encoding="UTF-8" standalone="no"?>
<svg
   width="45"
   height="45"
   viewBox="0 0 45 45"
   fill="none"
   version="1.1"
   id="svg2"
   sodipodi:docname="Left.svg"
   inkscape:version="1.4 (86a8ad7, 2024-10-11)"
   xmlns:inkscape="http://www.inkscape.org/namespaces/inkscape"
   xmlns:sodipodi="http://sodipodi.sourceforge.net/DTD/sodipodi-0.dtd"
   xmlns="http://www.w3.org/2000/svg"
   xmlns:svg="http://www.w3.org/2000/svg">
  <defs
     id="defs2" />
  <sodipodi:namedview
     id="namedview2"
     pagecolor="#ffffff"
     bordercolor="#000000"
     borderopacity="0.25"
     inkscape:showpageshadow="2"
     inkscape:pageopacity="0.0"
     inkscape:pagecheckerboard="0"
     inkscape:deskcolor="#d1d1d1"
     inkscape:zoom="12.146523"
     inkscape:cx="16.836094"
     inkscape:cy="21.28181"
     inkscape:window-width="1920"
     inkscape:window-height="991"
     inkscape:window-x="-9"
     inkscape:window-y="-9"
     inkscape:window-maximized="1"
     inkscape:current-layer="svg2" />
  <path
     d="m 37.04626,23.814273 c -0.200446,0.935415 -0.668153,3.526006 -0.771081,4.466684 -0.13363,1.192441 -0.113016,2.796154 0.02061,4.086259 0.10278,1.007493 0.781315,5.3404 1.069191,7.165174 0.07705,0.488321 -0.190212,0.961145 -0.647684,1.140976 -1.4752,0.596368 -4.980738,1.881355 -9.832815,2.811653 -4.425599,0.848129 -7.221753,1.192441 -8.55806,1.326071 -0.534522,0.05147 -1.022844,-0.29811 -1.136006,-0.827516 C 16.553116,41.048673 14.419998,31.570549 11.891105,24.62132 11.567262,23.731961 8.0001734,13.123095 8.0001734,13.123095 7.4244214,11.539997 7.8254595,10.003099 9.3313622,9.3862633 10.878495,8.7489594 12.019618,9.4736934 12.600487,10.846112 l 2.369531,6.36836 c 0.113016,0.267261 0.359808,0.745349 0.637304,0.668299 0.298109,-0.08743 0.375306,-0.349575 0.298109,-0.642567 -0.50879,-1.999488 -2.595708,-8.5682941 -2.842354,-9.8276967 -0.339194,-1.7424611 0.184948,-3.2072804 1.783544,-3.6236699 1.598597,-0.4163017 2.981249,0.724734 3.335794,2.0252199 0.354692,1.3003397 2.888702,10.1103097 2.888702,10.1103097 0.215944,0.596219 0.807047,0.179977 0.750466,-0.133631 L 19.673113,4.0305129 c -0.421507,-2.4621218 0.873716,-3.95271693 2.498043,-4.01953231 1.305457,-0.05140566 2.724223,0.58595708 3.145583,2.72419271 l 2.066304,12.2793647 c 0.144011,0.539786 0.632186,0.498703 0.585986,-0.138748 L 27.270027,4.2771593 c -0.144011,-2.5083077 0.904565,-3.30500338 2.225519,-3.38724314 1.97902,-0.12335252 2.791038,1.02285884 2.960634,3.22788064 0.08743,1.1462405 0.940677,9.8379312 0.940677,9.8379312 0.01022,0.138893 0.02573,0.370189 0.02573,0.370189 0.570488,-0.694031 1.315837,-1.393034 2.498044,-1.408385 1.074162,-0.01549 1.942907,0.220914 2.462078,2.215285 0.447093,1.742461 -0.807047,6.224496 -1.336453,8.681456 z"
     fill="#000000"
     id="path1"
     style="stroke-width:1.46204" />
  <path
     d="M 30.247474,23.709152 C 30.03153,20.506989 30.365754,14.575487 33.31089,13.17222 l 0.102781,1.14624 c -1.793779,2.472312 -2.318067,9.719651 -2.354034,10.722028 -0.03596,1.007346 -0.683651,0.565371 -0.812163,-1.331336 z m -9.724916,20.822103 c 0,0 -0.796665,-0.09766 -1.207792,-1.202675 -0.411272,-1.105157 -1.408384,-6.116596 -1.449467,-6.543221 -0.08743,-0.89433 0.143865,-0.899447 0.292846,-0.89433 0.195329,0.01022 0.426625,0.308345 0.657919,1.259256 0.411272,1.68588 1.706494,7.38097 1.706494,7.38097 z m 3.988743,-0.627069 c 0,0 -0.796813,-0.09766 -1.207939,-1.202676 -0.411272,-1.105156 -1.382652,-5.998463 -1.429,-6.419824 -0.09766,-0.914946 0.07208,-0.956029 0.179978,-1.002375 0.205562,-0.08743 0.483205,0.138747 0.750466,1.243904 0.406008,1.68588 1.706495,7.380971 1.706495,7.380971 z m 3.613289,-0.724734 c 0,0 -0.796667,-0.09766 -1.207792,-1.202676 -0.318726,-0.853247 -1.146241,-4.389633 -1.423882,-6.137211 -0.1079,-0.683651 -0.01535,-1.22329 0.282758,-1.228407 0.133631,-0.0052 0.344457,-0.154246 0.647684,1.187324 0.37516,1.690996 1.701232,7.38097 1.701232,7.38097 z m 6.553601,-1.752696 c 0,0 0.673271,-0.43174 0.570489,-1.603713 -0.08217,-0.904565 -0.83775,-4.466683 -1.326072,-6.167915 -0.08231,-0.282758 -0.33934,-0.909828 -0.678534,-0.822397 -0.339193,0.08729 -0.323842,0.447091 -0.164479,1.19244 0.354692,1.690998 1.598596,7.401585 1.598596,7.401585 z m -3.767681,1.069045 c 0,0 0.673417,-0.431741 0.570489,-1.603567 -0.07705,-0.873862 -0.781169,-4.199422 -1.269491,-5.962497 -0.169596,-0.611573 -0.262144,-1.140978 -0.693884,-1.146095 -0.370044,-0.0053 -0.364926,0.58584 -0.205564,1.310574 0.148982,0.72488 1.59845,7.401585 1.59845,7.401585 z"
     fill="#2f7889"
     id="path2"
     style="stroke-width:1.46204" />
</svg>
