<?xml version="1.0" encoding="UTF-8" standalone="no"?>
<svg
   width="45"
   height="45"
   viewBox="0 0 45 45"
   fill="none"
   version="1.1"
   id="svg2"
   sodipodi:docname="Right.svg"
   inkscape:version="1.4 (86a8ad7, 2024-10-11)"
   xmlns:inkscape="http://www.inkscape.org/namespaces/inkscape"
   xmlns:sodipodi="http://sodipodi.sourceforge.net/DTD/sodipodi-0.dtd"
   xmlns="http://www.w3.org/2000/svg"
   xmlns:svg="http://www.w3.org/2000/svg">
  <defs
     id="defs2" />
  <sodipodi:namedview
     id="namedview2"
     pagecolor="#ffffff"
     bordercolor="#000000"
     borderopacity="0.25"
     inkscape:showpageshadow="2"
     inkscape:pageopacity="0.0"
     inkscape:pagecheckerboard="0"
     inkscape:deskcolor="#d1d1d1"
     inkscape:zoom="12.146523"
     inkscape:cx="16.836094"
     inkscape:cy="21.28181"
     inkscape:window-width="1920"
     inkscape:window-height="991"
     inkscape:window-x="-9"
     inkscape:window-y="-9"
     inkscape:window-maximized="1"
     inkscape:current-layer="svg2" />
  <path
     d="m 9.1798727,23.814273 c 0.200446,0.935415 0.668153,3.526006 0.771081,4.466684 0.1336303,1.192441 0.1130163,2.796154 -0.02061,4.086259 -0.10278,1.007493 -0.781315,5.3404 -1.069191,7.165174 -0.07705,0.488321 0.190212,0.961145 0.647684,1.140976 1.4752003,0.596368 4.9807383,1.881355 9.8328153,2.811653 4.425599,0.848129 7.221753,1.192441 8.55806,1.326071 0.534522,0.05147 1.022844,-0.29811 1.136006,-0.827516 0.637299,-2.934901 2.770417,-12.413025 5.29931,-19.362254 0.323843,-0.889359 3.890931,-11.498225 3.890931,-11.498225 0.575752,-1.583098 0.174714,-3.119996 -1.331189,-3.7368317 -1.547132,-0.6373039 -2.688255,0.08743 -3.269124,1.4598487 l -2.369531,6.36836 c -0.113016,0.267261 -0.359808,0.745349 -0.637304,0.668299 -0.298109,-0.08743 -0.375306,-0.349575 -0.298109,-0.642567 0.50879,-1.999488 2.595708,-8.5682941 2.842354,-9.8276967 C 33.50225,5.6700462 32.978108,4.2052269 31.379512,3.7888374 29.780915,3.3725357 28.398263,4.5135714 28.043718,5.8140573 27.689026,7.114397 25.155016,15.924367 25.155016,15.924367 24.939072,16.520586 24.347969,16.104344 24.40455,15.790736 L 26.55302,4.0305129 C 26.974527,1.5683911 25.679304,0.07779597 24.054977,0.01098059 22.74952,-0.04042507 21.330754,0.59693767 20.909394,2.7351733 L 18.84309,15.014538 c -0.144011,0.539786 -0.632186,0.498703 -0.585986,-0.138748 L 18.956106,4.2771593 C 19.100117,1.7688516 18.051541,0.97215592 16.730587,0.88991616 14.751567,0.76656364 13.939549,1.912775 13.769953,4.1177968 c -0.08743,1.1462405 -0.940677,9.8379312 -0.940677,9.8379312 -0.01022,0.138893 -0.02573,0.370189 -0.02573,0.370189 -0.570488,-0.694031 -1.315837,-1.393034 -2.498044,-1.408385 -1.0741623,-0.01549 -1.9429073,0.220914 -2.4620783,2.215285 -0.447093,1.742461 0.807047,6.224496 1.336453,8.681456 z"
     fill="#000000"
     id="path1"
     style="stroke-width:1.46204" />
  <path
     d="m 15.978659,23.709152 c 0.215944,-3.202163 -0.11828,-9.133665 -3.063416,-10.536932 l -0.102781,1.14624 c 1.793779,2.472312 2.318067,9.719651 2.354034,10.722028 0.03596,1.007346 0.683651,0.565371 0.812163,-1.331336 z m 9.724916,20.822103 c 0,0 0.796665,-0.09766 1.207792,-1.202675 0.411272,-1.105157 1.408384,-6.116596 1.449467,-6.543221 0.08743,-0.89433 -0.143865,-0.899447 -0.292846,-0.89433 -0.195329,0.01022 -0.426625,0.308345 -0.657919,1.259256 -0.411272,1.68588 -1.706494,7.38097 -1.706494,7.38097 z m -3.988743,-0.627069 c 0,0 0.796813,-0.09766 1.207939,-1.202676 0.411272,-1.105156 1.382652,-5.998463 1.429,-6.419824 0.09766,-0.914946 -0.07208,-0.956029 -0.179978,-1.002375 -0.205562,-0.08743 -0.483205,0.138747 -0.750466,1.243904 -0.406008,1.68588 -1.706495,7.380971 -1.706495,7.380971 z m -3.613289,-0.724734 c 0,0 0.796667,-0.09766 1.207792,-1.202676 0.318726,-0.853247 1.146241,-4.389633 1.423882,-6.137211 0.1079,-0.683651 0.01535,-1.22329 -0.282758,-1.228407 -0.133631,-0.0052 -0.344457,-0.154246 -0.647684,1.187324 -0.37516,1.690996 -1.701232,7.38097 -1.701232,7.38097 z m -6.553601,-1.752696 c 0,0 -0.673271,-0.43174 -0.570489,-1.603713 0.08217,-0.904565 0.83775,-4.466683 1.326072,-6.167915 0.08231,-0.282758 0.33934,-0.909828 0.678534,-0.822397 0.339193,0.08729 0.323842,0.447091 0.164479,1.19244 -0.354692,1.690998 -1.598596,7.401585 -1.598596,7.401585 z m 3.767681,1.069045 c 0,0 -0.673417,-0.431741 -0.570489,-1.603567 0.07705,-0.873862 0.781169,-4.199422 1.269491,-5.962497 0.169596,-0.611573 0.262144,-1.140978 0.693884,-1.146095 0.370044,-0.0053 0.364926,0.58584 0.205564,1.310574 -0.148982,0.72488 -1.59845,7.401585 -1.59845,7.401585 z"
     fill="#2f7889"
     id="path2"
     style="stroke-width:1.46204" />
</svg>
