<?xml version="1.0" encoding="UTF-8" standalone="no"?>
<svg
   width="45"
   height="45"
   viewBox="0 0 45 45"
   fill="none"
   version="1.1"
   id="svg3"
   sodipodi:docname="Right.svg"
   inkscape:version="1.4 (86a8ad7, 2024-10-11)"
   xmlns:inkscape="http://www.inkscape.org/namespaces/inkscape"
   xmlns:sodipodi="http://sodipodi.sourceforge.net/DTD/sodipodi-0.dtd"
   xmlns="http://www.w3.org/2000/svg"
   xmlns:svg="http://www.w3.org/2000/svg">
  <defs
     id="defs3" />
  <sodipodi:namedview
     id="namedview3"
     pagecolor="#ffffff"
     bordercolor="#000000"
     borderopacity="0.25"
     inkscape:showpageshadow="2"
     inkscape:pageopacity="0.0"
     inkscape:pagecheckerboard="0"
     inkscape:deskcolor="#d1d1d1"
     inkscape:zoom="12.146523"
     inkscape:cx="18.317999"
     inkscape:cy="22.187419"
     inkscape:window-width="1920"
     inkscape:window-height="991"
     inkscape:window-x="-9"
     inkscape:window-y="-9"
     inkscape:window-maximized="1"
     inkscape:current-layer="svg3" />
  <path
     d="m 1.9837109,29.312856 c 1.682644,-1.051328 5.685546,-4.929128 6.370954,-6.943609 0.685407,-2.014604 1.7907041,-6.074562 4.2452031,-8.346903 l 9.10011,-8.4301527 c 0,0 1.329197,-1.9080258 2.900693,-0.2902175 2.170457,2.2353049 0.378148,3.8947317 0.378148,3.8947317 l -3.389988,3.5367025 -3.443955,2.297041 c 0,0 0.767162,0.827428 4.169499,-2.323346 L 33.805754,2.0632697 c 0,0 1.264361,-1.92037564 2.863645,-0.330354 2.088578,2.0747466 0.359622,3.9889473 0.359622,3.9889473 l -10.649995,9.865803 c 0.493987,0.38284 0.444588,0.629834 0.460026,0.616002 L 38.464672,5.434733 c 0,0 1.048191,-2.0006486 2.727748,-0.4955311 2.249186,2.0160856 0.606678,4.0969576 0.606678,4.0969576 L 30.124067,19.786558 c -0.01395,0.01235 0.512512,0.585128 0.489295,0.60674 L 40.641316,11.10325 c 0,0 1.142345,-2.0979646 2.727736,-0.493988 2.263079,2.289261 0.509424,4.150976 0.509424,4.150976 l -10.694775,9.893701 c -0.09732,0.08953 0.418284,0.654533 0.296392,0.768767 l 7.682997,-7.11811 c 0,0 1.048179,-2.000648 2.727736,-0.493987 2.150388,1.932725 0.338072,3.803702 0.338072,3.803702 0,0 -12.142837,11.228949 -12.409837,11.496073 -0.267124,0.265517 -0.827429,0.76568 -0.827429,0.76568 -2.036215,1.716606 -3.706509,2.371139 -5.863012,3.135214 -0.240818,0.08645 -0.396795,0.132759 -0.580434,0.185244 -2.104139,0.609828 -7.872923,2.980967 -11.72763,6.654998 -2.411275,2.29704 -6.3137741,-2.114884 -7.1056361,-3.229443 -1.054416,-1.483566 3.700212,-4.283857 4.4010561,-5.125117 0.700845,-0.841384 0.350484,-2.453018 -1.0512051,-1.542229 -1.401688,0.91079 -4.033777,4.831813 -5.22552,3.779003 -1.191745,-1.05281 -2.90834999,-3.831489 -3.25722899,-5.268621 -0.22847,-0.944751 -0.27935,-2.101052 1.40168899,-3.152257 z"
     fill="#66757f"
     id="path1"
     style="stroke-width:1.23497" />
  <path
     d="m 1.5226969,28.695866 c 1.682644,-1.051329 5.683941,-4.929129 6.370954,-6.943609 0.686889,-2.014603 1.790704,-6.074562 4.2452041,-8.346903 l 9.10011,-8.4301652 c 0,0 1.654857,-1.5329042 3.187823,0.1219532 1.532843,1.6548574 -0.123497,3.186181 -0.123497,3.186181 l -3.545964,3.285016 -3.073465,2.846601 c 0,0 0.767162,0.827429 4.1695,-2.323222 L 33.344741,1.4478109 c 0,0 1.654857,-1.53290432 3.187823,0.1219531 1.532843,1.6548575 -0.122015,3.1877617 -0.122015,3.1877617 L 25.544434,14.82248 c 0.0231,-0.02161 0.818166,0.77803 0.833604,0.764198 L 38.003658,4.8177304 c 0,0 1.654858,-1.5329043 3.187762,0.1219531 1.532904,1.6548575 -0.121953,3.186181 -0.121953,3.186181 L 29.442241,18.896393 c -0.01384,0.01235 0.733324,0.858303 0.710107,0.879915 L 40.18029,10.487741 c 0,0 1.654857,-1.5328423 3.187761,0.122015 1.532905,1.654858 -0.121953,3.187701 -0.121953,3.187701 l -10.662345,9.876658 c -0.09732,0.09114 0.558823,1.020454 0.436808,1.133083 l 7.683046,-7.116504 c 0,0 1.654858,-1.532843 3.187762,0.123496 1.532904,1.656464 -0.121953,3.187824 -0.121953,3.187824 L 31.359529,32.497963 c 0,0 -0.512512,0.526466 -0.827429,0.76568 -1.975949,1.500487 -3.772827,2.474629 -5.774958,3.102858 -0.196113,0.06484 -0.484725,0.165238 -0.668488,0.217724 -2.104016,0.609704 -7.872923,2.980844 -11.727506,6.654873 -2.4112741,2.298647 -6.3137751,-2.114882 -7.1057601,-3.229441 -1.054291,-1.483444 3.700335,-4.283734 4.40118,-5.125119 0.7008451,-0.841259 0.3503611,-2.452893 -1.051329,-1.542105 -1.401688,0.91079 -4.033653,4.831814 -5.225396,3.779004 -1.191745,-1.052811 -2.90835099,-3.831489 -3.25722899,-5.268746 -0.230075,-0.947838 -0.280956,-2.10562 1.40008299,-3.156825 z"
     fill="#000000"
     id="path2"
     style="stroke-width:1.23497" />
  <path
     d="m 18.419286,31.780817 c 0.10744,-1.24e-4 0.213648,-0.02273 0.311828,-0.06632 l 10.078824,-4.450576 c 0.09509,-0.0394 0.181416,-0.09744 0.253662,-0.170672 0.07237,-0.07324 0.129301,-0.160175 0.167461,-0.255762 0.03816,-0.09558 0.05694,-0.197842 0.05508,-0.300715 -0.002,-0.102869 -0.02445,-0.204387 -0.06607,-0.298492 -0.04174,-0.0941 -0.101761,-0.178947 -0.176723,-0.249463 -0.07496,-0.07052 -0.163263,-0.12535 -0.259838,-0.161287 -0.09645,-0.03581 -0.199077,-0.05211 -0.301949,-0.04779 -0.10275,0.0045 -0.203647,0.02927 -0.296764,0.07323 l -10.078946,4.450579 c -0.161657,0.07176 -0.293799,0.196854 -0.374195,0.354435 -0.08052,0.157583 -0.104356,0.338135 -0.06767,0.511155 0.03668,0.173141 0.131771,0.328254 0.269346,0.439648 0.137452,0.111395 0.308989,0.172155 0.485961,0.172031 z m -3.854707,-4.626438 c 0.202905,-1.24e-4 0.397537,-0.0799 0.541904,-0.222295 l 8.109048,-7.976412 c 0.0741,-0.07064 0.133377,-0.155236 0.174378,-0.249093 0.04112,-0.09374 0.0631,-0.194631 0.06471,-0.29701 0.0016,-0.10238 -0.01704,-0.204017 -0.05508,-0.298986 -0.03804,-0.09509 -0.09447,-0.18154 -0.166227,-0.254527 -0.07188,-0.07298 -0.157335,-0.131031 -0.251687,-0.170549 -0.09447,-0.03965 -0.195742,-0.06014 -0.298121,-0.06027 -0.102261,0 -0.203646,0.02025 -0.298121,0.05965 -0.09436,0.03952 -0.180059,0.09732 -0.251934,0.170178 l -8.107566,7.976289 c -0.109418,0.107321 -0.184381,0.244647 -0.215379,0.394572 -0.03112,0.150049 -0.0168,0.305779 0.04087,0.447677 0.05779,0.141898 0.156471,0.263294 0.283426,0.348878 0.127078,0.08558 0.276632,0.131524 0.429768,0.131895 z m 1.892589,2.242949 c 0.154864,-2.47e-4 0.306025,-0.04705 0.433844,-0.134241 l 9.624972,-6.546937 c 0.154,-0.121151 0.256132,-0.296269 0.285895,-0.489912 0.02977,-0.193643 -0.01494,-0.391361 -0.12535,-0.553266 -0.110282,-0.161781 -0.27799,-0.275768 -0.46904,-0.318868 -0.191173,-0.0431 -0.391485,-0.01198 -0.560552,0.08694 l -9.625096,6.546937 c -0.136216,0.093 -0.23909,0.227111 -0.293552,0.38284 -0.05434,0.15573 -0.05755,0.324796 -0.0088,0.482502 0.04866,0.157582 0.146591,0.295405 0.279349,0.393337 0.13276,0.09794 0.293429,0.15079 0.458298,0.150667 z"
     fill="#66757f"
     id="path3"
     style="stroke-width:1.23497" />
</svg>
