<svg width="45" height="45" viewBox="0 0 45 45" fill="none" xmlns="http://www.w3.org/2000/svg">
<path d="M30.066 19.7378C29.0773 18.7484 27.496 20.1034 26.9504 21.3953L26.951 14.8722C26.9594 14.1936 26.816 13.5216 26.5314 12.9055C26.2468 12.2893 25.8282 11.7446 25.306 11.3109C21.1704 7.98032 15.6404 11.5672 15.4735 15.6966C15.3273 19.3153 15.4723 22.9397 15.4723 26.5609C15.4723 28.4759 16.4085 33.1472 16.4085 33.1472C16.4085 33.1472 20.3817 33.8841 22.3567 33.9722C24.4692 34.0659 26.5548 33.9622 27.936 32.6016C29.271 31.2872 29.9379 28.7528 29.9385 26.7309C29.9173 25.3341 30.0654 22.9597 30.066 19.7378Z" fill="black"/>
<path d="M27.0749 21.4521C27.4248 20.6073 28.0812 19.9259 28.9124 19.5446C29.0609 19.4966 29.2183 19.4828 29.3729 19.5043C29.5275 19.5258 29.6753 19.5821 29.805 19.6688C29.9347 19.7556 30.0431 19.8707 30.122 20.0054C30.2009 20.1401 30.2483 20.2909 30.2605 20.4465C31.0255 27.5353 29.6924 31.5628 26.788 33.9353H17.0799C14.0467 30.559 15.0755 22.2465 15.598 15.754C15.9261 11.669 21.2017 8.09776 25.3255 11.2853C25.8754 11.7193 26.3189 12.2731 26.6222 12.9046C26.9255 13.5361 27.0805 14.2285 27.0755 14.929L27.0749 21.4521ZM27.0749 21.4521L26.788 25.6428" stroke="black" stroke-width="1.25" stroke-linecap="round" stroke-linejoin="round"/>
</svg>
