<svg width="45" height="45" viewBox="0 0 45 45" fill="none" xmlns="http://www.w3.org/2000/svg">
<path d="M15.2812 19.7378C16.27 18.7491 17.8519 20.1034 18.3969 21.3953L18.3962 14.8722C18.3879 14.1935 18.5313 13.5216 18.8159 12.9055C19.1005 12.2893 19.5191 11.7445 20.0412 11.3109C24.1769 7.98031 29.7075 11.5672 29.8737 15.6972C30.02 19.3159 29.875 22.9397 29.8756 26.5616C29.8756 28.4759 28.9387 33.1472 28.9387 33.1472C28.9387 33.1472 24.9662 33.8847 22.9906 33.9722C20.8781 34.0666 18.7931 33.9622 17.4113 32.6022C16.0763 31.2872 15.4094 28.7528 15.4094 26.7309C15.4306 25.3341 15.2812 22.9597 15.2812 19.7378Z" fill="black"/>
<path d="M18.3981 21.3935C18.0482 20.5487 17.3918 19.8673 16.5606 19.486C16.4121 19.438 16.2547 19.4242 16.1001 19.4457C15.9454 19.4672 15.7977 19.5235 15.668 19.6103C15.5383 19.697 15.4299 19.8121 15.351 19.9468C15.2721 20.0815 15.2247 20.2323 15.2125 20.3879C14.4475 27.4767 15.7806 31.5042 18.685 33.8767H28.3931C31.4263 30.5004 30.3975 22.1879 29.875 15.6954C29.5469 11.6104 24.2713 8.03916 20.1475 11.2267C19.5976 11.6607 19.1541 12.2145 18.8508 12.846C18.5475 13.4775 18.3925 14.1699 18.3975 14.8704L18.3981 21.3935ZM18.3981 21.3935L18.685 25.5842" stroke="black" stroke-width="1.25" stroke-linecap="round" stroke-linejoin="round"/>
</svg>
